<svg xmlns="http://www.w3.org/2000/svg" version="1.1" xmlns:xlink="http://www.w3.org/1999/xlink" xmlns:svgjs="http://svgjs.dev/svgjs" width="100%" height="100%" viewBox="0 0 1000 600"><rect width="1000" height="600" x="0" y="0" fill="#222222"/><g><circle r="166.66666666666666" cx="357.43334452311194" cy="379.65553878037133" fill="#ff8c00" transform="matrix(0.6552508264756315,0,0,0.6552508264756314,0,51.23039825280779)"/><path d="M257.5649362647661 401.87359450576184L257.5649362647661 401.87359450576184Q257.33937235129474 400.9713388518764 257.5649362647661 399.26349779273613Q257.79050017823744 397.55565673359587 258.27385142139036 395.6222517609842Q258.72497924833306 393.7210702045828 259.4016709887471 392.1098993940731Q260.0783627291612 390.53095199977366 260.75505446957527 390.07982417283097L260.75505446957527 390.07982417283097Q260.75505446957527 389.8542602593596 262.23733161524416 389.53202609725764Q263.68738534470293 389.1775685189455 264.5896409985883 389.1775685189455L264.5896409985883 389.1775685189455Q268.2308870303402 389.1775685189455 270.2609622515824 391.20764374018773Q272.2910374728246 393.2699423776401 274.22444244543624 395.6222517609842Q276.1578474180479 398.00678456053856 278.76794413107353 400.0368597817808Q281.37804084409925 402.09915841923316 286.1148830269977 402.09915841923316L286.1148830269977 402.09915841923316Q298.810909013814 402.09915841923316 309.5735300280187 397.78122064706724Q320.3361510422234 393.4955062911115 329.7453885755999 388.3719831136907Q339.1546261089765 383.2806833524801 347.6293845722574 378.99496899652434Q356.13636645174853 374.67703122435836 364.28889075292756 374.67703122435836L364.28889075292756 374.67703122435836Q364.28889075292756 377.83492601295734 361.45323012643047 381.47617204470924Q358.6175694999335 385.0851946602509 354.65408930607964 388.50087677853145Q350.6906091122258 391.8843354806018 346.50156500490067 394.62332585846826Q342.31252089757544 397.3300928201245 339.8313178493906 398.68347630095263L339.8313178493906 398.68347630095263Q332.35548528862563 403.22697798659 326.2330362086888 406.2882025265584Q320.110587128752 409.34942706652674 313.76257413534387 411.5083959526097Q307.41456114193574 413.6351414224825 300.38985640811353 414.7629609898393Q293.36515167429127 415.9230039734063 284.0848078057555 416.374131800349L284.0848078057555 416.374131800349Q284.9870634596409 417.5019513677058 287.500489924036 419.9831544158907Q289.98169297222097 422.49658088028576 292.81735359871794 425.3000180905726Q295.65301422521503 428.13567871706965 298.13421727339994 430.6491051814648Q300.61542032158485 433.1303082296497 301.77546330515185 434.0325638835351L301.77546330515185 434.0325638835351Q303.805538526394 435.8370751913059 306.5123054880503 436.64266059656075Q309.25129586591675 437.4482460018156 312.0547330762036 437.54491625044625Q314.89039370270064 437.67380991528705 317.72605432919767 437.4482460018156Q320.56171495569475 437.2226820883443 323.04291800387966 437.2226820883443L323.04291800387966 437.2226820883443Q328.7142392568737 437.2226820883443 336.3189654824794 436.4170966830894Q343.89146829187496 435.61151127783467 351.14173693916854 433.4847658079618Q358.3920055864621 431.32579692187886 364.192220504297 427.23342306318426Q369.9602120059216 423.1732726206999 372.2158511406352 416.374131800349L372.2158511406352 416.374131800349Q372.6669789675779 415.02074831952086 373.9236921997755 410.7028105473549Q375.180405431973 406.3848727751889 376.9849167397438 400.745774938405Q378.7894280475147 395.07445368541096 380.8195032687569 388.50087677853145Q382.88180190620926 381.92729987165194 384.6863132139801 376.2559786186579Q386.490824521751 370.58465736566376 387.97310166741994 366.298943009708Q389.45537881308877 361.98100523754204 389.9065066400315 360.6276217567139L389.9065066400315 360.6276217567139Q393.96665708251595 352.4750974555349 399.5090846706692 343.5169877491011Q405.08373567503276 334.55887804266723 411.8828764953836 326.7608113198004Q418.6820173157344 318.9305211807233 426.38341378997075 312.9369657656273Q434.0848102642071 306.9434103505313 442.4628984788574 304.6555477996075L442.4628984788574 304.6555477996075Q450.389858866565 304.6555477996075 453.9022112334762 310.10130513913026Q457.4145636003872 315.54706247865295 457.4145636003872 322.34620329900383L457.4145636003872 322.34620329900383Q457.4145636003872 339.3279436417759 450.389858866565 355.4074283306625Q443.3651541327428 371.5191364357594 432.60253311853813 386.01967373034654Q421.83991210433345 400.5202110249337 408.82165195541523 412.7328857685971Q395.77116839028673 424.97778392847067 383.7840575600947 434.0325638835351L383.7840575600947 434.0325638835351Q383.7840575600947 434.70925562394916 383.4295999817826 435.96596885614673Q383.10736581968064 437.2226820883443 382.65623799273794 438.57606556917244Q382.20511016579525 439.9294490500006 381.7539823388525 441.1861622821981Q381.27063109569957 442.41065209818544 381.04506718222825 442.8617799251282L381.04506718222825 442.8617799251282Q380.8195032687569 443.0873438385995 380.59393935528556 443.0873438385995L380.59393935528556 443.0873438385995L379.9172476148715 443.0873438385995Q379.4661197879288 443.0873438385995 378.91832171235546 442.990673589969Q378.33830022057197 442.8617799251282 378.11273630710065 442.8617799251282L378.11273630710065 442.8617799251282Q376.9849167397438 442.63621601165687 373.6981282863041 441.50839644430005Q370.41133983286437 440.3805768769433 369.28352026550755 439.9294490500006L369.28352026550755 439.9294490500006Q367.2534450442654 440.60614079041466 362.25881553168534 442.41065209818544Q357.26418601910535 444.2473868221665 351.59286476611123 446.05189812993734Q345.95376692932734 447.8564094377082 340.9591374167473 449.4353568320077Q335.9645079041673 451.0143042263072 333.9344326829251 451.72321938293146L333.9344326829251 451.72321938293146Q333.4833048559824 451.9487832964028 331.67879354821156 452.27101745850473Q329.8420588242305 452.62547503681685 327.4897494408864 453.0766028637596Q325.10521664133205 453.5277306907023 322.8173540904083 453.978858517645Q320.56171495569475 454.42998634458775 319.43389538833793 454.65555025805907L319.43389538833793 454.65555025805907L317.85494799403847 454.65555025805907Q307.41456114193574 454.65555025805907 298.13421727339994 449.56425049684844Q288.85387340486415 444.4729507356379 281.24914717925844 436.64266059656075Q273.6766443698629 428.8123704574838 267.65086553855673 419.53202658894793Q261.6573101234607 410.2516827204122 257.5649362647661 401.87359450576184ZM446.78083625102335 318.4793933537806L446.78083625102335 318.4793933537806Q439.2727802740482 318.4793933537806 431.92584137812406 323.5706931149912Q424.54667906598974 328.69421629241197 417.8764319104796 336.846740593591Q411.20618475496957 344.99926489476996 405.5348635019754 355.31075808203195Q399.86354224898133 365.62225126929394 395.6744981416562 375.9337444565559Q391.485454034331 386.2452376438179 389.10092123477665 395.8478156744556Q386.7163884352223 405.4826171213035 386.7163884352223 412.05619402818303L386.7163884352223 412.05619402818303Q386.7163884352223 412.5073218551257 386.8452821000631 412.9584496820685Q386.94195234869375 413.40957750901117 386.94195234869375 413.6351414224825L386.94195234869375 413.6351414224825Q399.86354224898133 405.9337449482462 410.7550569280268 395.8478156744556Q421.61434819086213 385.761886400665 429.67020224341053 373.5492116570016Q437.69383287974875 361.30431349712796 442.23733456538605 347.48046794295493Q446.78083625102335 333.65662238878184 446.78083625102335 318.4793933537806Z " fill="#222222" transform="matrix(0.6552508264756315,0,0,0.6552508264756314,0,51.23039825280779)"/><path d="M607.4333554873931 361.8211348779436L607.4333554873931 361.8211348779436Q607.4333554873931 360.1503243866349 607.6422067988067 358.09164717412955Q607.8510581102203 356.0478879124394 608.5969556509831 354.3770774211307Q609.3279352409306 352.69134897900676 610.74514056838 351.542666766232Q612.1623458958294 350.39398455345724 614.5641359770856 350.39398455345724L614.5641359770856 350.39398455345724Q614.5641359770856 351.7515180776456 614.3105308132263 352.90020029042034Q614.0420076985516 354.06380045401033 613.6839768789855 355.21248266678504Q613.3110281086041 356.3611648795598 613.0425049939295 357.6739445513024Q612.7888998300701 358.9867242230449 612.7888998300701 360.5680270094621L612.7888998300701 360.5680270094621Q612.7888998300701 364.55111987713553 613.833156387138 368.01208446627504Q614.877412944206 371.4730490554145 617.0405158124182 374.0389365956386Q619.1887007298151 376.6048241358627 622.38114220428 378.0817012665731Q625.58850162956 379.5436604464682 629.9892971200608 379.5436604464682L629.9892971200608 379.5436604464682Q631.868958922783 379.5436604464682 634.5989439219749 378.7082552008138Q637.3289289211668 377.8728499551595 640.0589139203588 376.72416774238474Q642.7888989195507 375.56056757879475 645.0862633451001 374.41188536602Q647.3985457214649 373.24828520243 648.3383766228261 372.72615692389604L648.3383766228261 372.72615692389604Q650.6506589991908 371.4730490554145 652.0081925233791 369.2204384823108Q653.3806439983827 366.9678279092071 654.1116235883302 364.2825967624609Q654.8426031782777 361.61228356653004 655.0514544896914 358.8375447148924Q655.260305801105 356.0478879124394 655.260305801105 353.85494914259675L655.260305801105 353.85494914259675Q655.260305801105 350.28955889775045 654.5889980144185 346.87334816105675Q653.9027722769166 343.4720553751783 653.112120883708 340.1155164417456Q652.3363874413147 336.75897750831297 651.650161703813 333.40243857488025Q650.9639359663112 330.0458996414476 650.9639359663112 326.5849350523081L650.9639359663112 326.5849350523081Q652.1126181790859 323.3328217745822 654.5889980144185 320.64759062783605Q657.0504598989357 317.9772774319052 660.2429013734006 316.03794382592184Q663.4502607986807 314.09861021993856 667.1200766992338 312.9499280071638Q670.7898925997869 311.7863278435738 674.2508571889263 311.5774765321602L674.2508571889263 311.5774765321602Q677.085267843825 312.30845612210777 678.5472270237202 313.4123844824367Q680.0241041544306 314.5163128427657 680.5909862854103 315.7694207112472Q681.1727863672053 317.037446530544 680.8595094000849 318.1861287433188Q680.5462324329645 319.3348109560935 679.815252843017 320.2895598082699L679.815252843017 320.2895598082699Q678.651652679427 317.7684261204916 676.8167447291504 316.9330208748372Q674.9818367788739 316.0826976783676 672.7292262057701 316.41089259630326Q670.4766156326665 316.72416956342363 668.1643332563018 317.9772774319052Q665.8669688307523 319.23038530038673 663.7635377658011 320.8116880868039Q661.66010670085 322.3780729224058 660.0937218652481 324.10855521697556Q658.5124190788309 325.8390375115453 657.7814394888834 327.10706333084204L657.7814394888834 327.10706333084204Q657.7814394888834 330.2547509528612 658.4676652263851 333.2383411159125Q659.153890963887 336.2219312789637 659.9296244062801 339.22043939283026Q660.7202757994888 342.2040295558815 661.4065015369906 345.20253766974804Q662.0778093236771 348.18612783279934 662.0778093236771 351.3338154548184L662.0778093236771 351.3338154548184Q662.0778093236771 358.8822985673381 659.7207730948666 365.13291995893053Q657.3637368660561 371.3686233997077 652.9032695722944 375.82909069346937Q648.4428022785329 380.28955798723103 642.1026731820489 382.6913480684873Q635.7625440855649 385.1080561005588 627.8858660551095 385.1080561005588L627.8858660551095 385.1080561005588Q622.962942286075 385.1080561005588 619.129028926554 383.10905069131445Q615.3100335178484 381.12496323288536 612.7292280268091 377.81317815189846Q610.1633404865851 374.5163110217268 608.8058069623967 370.32436684263973Q607.4333554873931 366.11750471273746 607.4333554873931 361.8211348779436ZM670.0589130098393 378.18612692227987L670.0589130098393 378.18612692227987Q670.4766156326665 373.88975708748603 672.4159492386498 370.26469503937875Q674.355282844633 366.6545509420867 677.025596040564 363.3427658610998Q679.7108271873102 360.0458987309281 682.5899916946546 357.04739061706164Q685.4691562019991 354.06380045401033 687.7814385783639 351.02053848769805L687.7814385783639 351.02053848769805Q689.5715926761947 351.02053848769805 690.1384748071744 351.8111898809066Q690.7202748889694 352.5869233232999 690.7202748889694 353.75052348688996L690.7202748889694 353.75052348688996Q689.884869643315 354.6903543882511 688.0947155454843 357.1518162727684Q686.3194793984687 359.6132781572857 684.4845714481922 362.4476888121844Q682.6496634979156 365.2820994670831 681.2324581704663 367.80323315486146Q679.815252843017 370.32436684263973 679.6064015316034 371.3686233997077L679.6064015316034 371.3686233997077Q678.7560783351338 374.5163110217268 679.651155384049 375.30696241493536Q680.5462324329645 376.0826958573287 682.5899916946546 375.30696241493536Q684.6337509563448 374.5163110217268 687.4681616112435 372.4725517600367Q690.3025722661422 370.4287924983466 693.2861624291935 367.90765881056825Q696.28467054306 365.3865251227899 699.1041632471434 362.656540123598Q701.9385739020421 359.9414730752213 704.0420049669933 357.8380420102702L704.0420049669933 357.8380420102702L708.6516517689075 357.8380420102702Q708.6516517689075 359.6132781572857 708.1295234903736 361.2393347961486Q707.6073952118395 362.8653914350116 706.9808412775988 364.44669422142874Q706.354287343358 366.01307905703067 705.8172411140088 367.5943818434478Q705.2951128354748 369.16076667904974 705.2951128354748 370.84649512117375L705.2951128354748 370.84649512117375Q705.2951128354748 373.24828520243 706.8167438186309 373.78533143177924Q708.3383748017872 374.3074597103132 710.3373802110315 374.3074597103132L710.3373802110315 374.3074597103132Q713.0673652102233 374.3074597103132 716.0509553732746 373.20353134998425Q719.0345455363259 372.0996029896553 721.5556792241042 370.1602693836719Q724.0768129118826 368.2209357776886 725.7028695507455 365.65504823746454Q727.3289261896085 363.07424274642517 727.3289261896085 360.0458987309281L727.3289261896085 360.0458987309281Q727.3289261896085 357.3159137317362 726.5382747963998 355.0633031586325Q725.7476234031913 352.79577463471355 725.7476234031913 350.08070758633687L725.7476234031913 350.08070758633687Q725.7476234031913 346.828594308611 729.3130136480376 346.828594308611L729.3130136480376 346.828594308611Q730.8943164344547 346.828594308611 732.0429986472294 348.18612783279934Q733.2065988108194 349.5436613569876 733.9823322532128 351.4382411105252Q734.7729836464214 353.33282086406274 735.1459324168028 355.3169083224919Q735.5039632363689 357.3159137317362 735.5039632363689 358.56902160021775L735.5039632363689 358.56902160021775Q735.5039632363689 364.0289915986016 732.893321843699 368.2209357776886Q730.267762500214 372.41287995677567 726.1802439768337 375.2472906116744Q722.0778075026382 378.0817012665731 717.0952119303425 379.5436604464682Q712.1126163580469 381.0205375771786 707.3985439004259 381.0205375771786L707.3985439004259 381.0205375771786Q703.4154510327525 381.0205375771786 701.1031686563878 378.12645511901883Q698.7908862800231 375.2472906116744 698.6864606243163 371.3686233997077L698.6864606243163 371.3686233997077Q695.6431986580039 372.3084543010689 693.1369829210408 374.56106487417253Q690.6158492332626 376.8285933980915 688.0947155454843 379.185629626902Q685.5735818577059 381.5426658557125 682.8585148093292 383.31790200272803Q680.1285298101374 385.1080561005588 676.8764165324114 385.1080561005588L676.8764165324114 385.1080561005588Q676.0410112867571 385.1080561005588 674.8326572707214 384.37707651061123Q673.6243032546855 383.6460969206637 672.5203748943566 382.5869224127805Q671.4164465340276 381.5426658557125 670.6854669440801 380.3343118396768Q669.9544873541325 379.125957823641 670.0589130098393 378.18612692227987ZM738.651650858388 378.18612692227987L738.651650858388 378.18612692227987Q738.651650858388 376.72416774238474 738.9649278255084 375.6202393820558Q739.2782047926288 374.5163110217268 740.1285279890984 372.72615692389604L740.1285279890984 372.72615692389604Q740.859507579046 371.6819003668281 742.7988411850293 368.7430640562226Q744.7381747910126 365.8042277456171 746.8863597084095 362.5521144678912Q749.0345446258065 359.3000011901653 750.9738782317897 356.42083668282083Q752.9281297885883 353.5416721754763 753.659109378536 352.37807201188633L753.659109378536 352.37807201188633Q754.5989402798971 351.02053848769805 755.121068558431 350.91611283199126Q755.6431968369651 350.8116871762844 757.1200739676755 350.8116871762844L757.1200739676755 350.8116871762844Q758.0599048690366 350.8116871762844 759.1638332293655 350.91611283199126Q760.2677615896945 351.02053848769805 760.5810385568149 352.37807201188633L760.5810385568149 352.37807201188633Q759.1041614261045 355.94346225673263 756.6426995415873 359.15082168201275Q754.1812376570699 362.34326315647763 751.8242014282594 365.4909507784967Q749.4522472486336 368.6386384005158 747.6770111016182 371.9504234815027Q745.8868570037873 375.2472906116744 745.8868570037873 379.0215321679342L745.8868570037873 379.0215321679342Q746.3194775774298 379.0215321679342 747.19963667553 379.125957823641Q748.0947137244453 379.2303834793478 749.1389702815133 379.33480913505457Q750.1981447893965 379.4392347907614 751.0783038874966 379.5436604464682Q751.9733809364119 379.64808610217494 752.3910835592392 379.5436604464682L752.3910835592392 379.5436604464682Q753.0325554442952 379.4392347907614 754.539268476636 379.08120397119524Q756.0608994597923 378.7082552008138 757.791381754362 378.29055257798666Q759.5218640489317 377.8728499551595 761.1031668353488 377.45514733233233Q762.6695516709508 377.0374447095051 763.3110235560068 376.8285933980915L763.3110235560068 376.8285933980915Q763.3110235560068 377.0374447095051 763.3557774084526 377.4999011847781Q763.4154492117136 377.9772756108663 763.4154492117136 378.18612692227987L763.4154492117136 378.18612692227987Q763.4154492117136 380.28955798723103 761.4761156057302 381.6470915114193Q759.5218640489317 383.00462503560766 756.9559765087076 383.79527642881624Q754.3900889684835 384.5859278220248 751.7197757725526 384.8395329858842Q749.0345446258065 385.1080561005588 747.5725854459114 385.1080561005588L747.5725854459114 385.1080561005588Q745.9912826594942 385.1080561005588 744.3652260206312 384.7351073301774Q742.7391693817683 384.37707651061123 741.4860615132867 383.5416712649569Q740.2329536448052 382.6913480684873 739.4423022515966 381.37856839674475Q738.651650858388 380.0807066758174 738.651650858388 378.18612692227987ZM769.1737782264025 316.72416956342363L769.1737782264025 316.72416956342363Q770.5462297014061 316.72416956342363 771.6949119141809 316.8285952191304Q772.8435941269556 316.9330208748372 773.6939173234252 317.35072349766443Q774.5293225690796 317.7684261204916 775.0514508476135 318.603831366146Q775.5735791261476 319.4392366118003 775.5735791261476 320.9161137425107L775.5735791261476 320.9161137425107Q775.5735791261476 321.5426676767515 775.5735791261476 322.273647266699Q775.5735791261476 323.01954480746184 775.4243996179949 323.6908525941484Q775.2603021590272 324.3770783316502 774.8425995361999 324.8544527577384Q774.4248969133728 325.3169092330113 773.4850660120117 325.3169092330113L773.4850660120117 325.3169092330113Q772.0081888813013 325.3169092330113 771.1131118323859 324.2726526759434Q770.2329527342857 323.2283961188754 769.8152501114586 321.81119079142604Q769.3826295378161 320.3939854639767 769.2782038821093 318.91710833326636Q769.1737782264025 317.4551491533712 769.1737782264025 316.72416956342363ZM739.0693534812152 418.3601684677652L739.0693534812152 418.3601684677652Q744.9470261024262 418.3601684677652 749.7804421665693 415.00362953433256Q754.5989402798971 411.6470906008999 758.4776074918638 406.6644950286043Q762.3562747038304 401.68189945630866 765.1906853587291 396.07274994977223Q768.0250960136278 390.46360044323586 769.8152501114586 385.94346134621316L769.8152501114586 385.94346134621316Q770.5462297014061 384.06379954349086 771.6949119141809 380.75201446250395Q772.8435941269556 377.45514733233233 773.9475224872846 374.24778790705216Q775.0514508476135 371.0553464325873 775.8421022408221 368.534212744809Q776.6327536340308 366.01307905703067 776.6327536340308 365.5953764342035L776.6327536340308 365.5953764342035L776.6327536340308 365.17767381137634Q774.8425995361999 363.7157146314812 773.0673633891845 364.07374545104733Q771.2772092913538 364.44669422142874 769.6511526524907 365.13291995893053Q768.0250960136278 365.8042277456171 766.6675624894395 365.9683252045849Q765.295111014436 366.11750471273746 764.250854457368 364.13341725430837L764.250854457368 364.13341725430837Q764.250854457368 362.34326315647763 765.1906853587291 361.29900659940967Q766.1305162600903 360.2547500423417 767.6073933908007 359.6132781572857Q769.0693525706957 358.9867242230449 770.8595066685265 358.67344725592454Q772.634742815542 358.36017028880417 774.320471257666 357.942467665977Q775.9912817489748 357.5247650431498 777.3637332239783 356.79378545320225Q778.7212667481666 356.0478879124394 779.3478206824074 354.6903543882511L779.3478206824074 354.6903543882511L790.1633350234682 330.2547509528612Q791.5208685476565 327.3159146422557 793.9375765797281 324.7500271020316Q796.3393666609844 322.1692216109922 799.3826286272966 320.3939854639767Q802.425890593609 318.603831366146 805.7824295270417 317.559574809078Q809.1389684604743 316.51531825201005 812.2866560824934 316.51531825201005L812.2866560824934 316.51531825201005Q816.8067951795161 316.51531825201005 818.4776056708248 318.91710833326636Q820.1633341129487 321.33381636533784 820.1633341129487 326.1523144786657L820.1633341129487 326.1523144786657Q820.1633341129487 327.10706333084204 819.4771083754471 328.5690225107372Q818.7908826379452 330.0458996414476 817.7466260808773 331.4034331656359Q816.7023695238094 332.7609666898243 815.4343437045126 333.7157155420007Q814.181235836031 334.6555464433618 813.017635672441 334.6555464433618L813.017635672441 334.6555464433618Q813.017635672441 333.2980129191735 813.5546819017902 332.0896589031377Q814.0768101803242 330.8813048871019 814.643692311304 329.7326226743272Q815.2254923930989 328.5690225107372 815.747620671633 327.36066849470143Q816.2697489501669 326.1523144786657 816.2697489501669 324.69035529877056L816.2697489501669 324.69035529877056Q816.2697489501669 323.01954480746184 815.9564719830465 321.85594464387185Q815.6431950159262 320.7072624310971 813.3458305903766 320.7072624310971L813.3458305903766 320.7072624310971Q810.3025686240643 320.7072624310971 807.199634854491 322.22889341425326Q804.1116190357329 323.7505243974094 801.2175365775732 326.31641193763346Q798.3383720702287 328.8822994778576 795.7724845300046 332.1940845588445Q793.2065969897806 335.49095168901613 791.3567710886888 338.95191627815564Q789.5218631384122 342.4128808672951 788.4328527288985 345.8290916039888Q787.3289243685696 349.23038438986725 787.3289243685696 351.96036938905917L787.3289243685696 351.96036938905917Q787.3289243685696 352.16922070047275 787.3736782210153 352.64659512656095Q787.4333500242764 353.1090516018339 787.4333500242764 353.33282086406274L787.4333500242764 353.33282086406274Q789.4174374827054 352.69134897900676 791.9982429737448 351.8559437333524Q794.5641305139688 351.02053848769805 797.3388693656066 350.3343127501962Q800.1285261680595 349.6480870126944 802.9032650196972 349.1856305374215Q805.6780038713349 348.7082561113333 808.1991375591132 348.7082561113333L808.1991375591132 348.7082561113333Q808.1991375591132 350.39398455345724 806.5134091169892 351.7515180776456Q804.8425986256806 353.1090516018339 802.2767110854564 354.2726517654239Q799.695905594417 355.4213339781987 796.6078897756589 356.4655905352666Q793.5198739569009 357.5247650431498 790.789888957709 358.524267747772Q788.0599039585171 359.5088525015789 786.0161446968269 360.6127808619079Q783.9723854351369 361.71670922223683 783.4502571566029 362.8653914350116L783.4502571566029 362.8653914350116Q782.9132109272537 366.01307905703067 781.182728632684 371.5774747111213Q779.4522463381142 377.14187036521196 776.7371792897376 383.6460969206637Q774.0071942905456 390.15032347611543 770.4865578981452 396.8634013429808Q766.9808394565599 403.5764792098462 762.8336491299186 409.0215312574147Q758.6864588032773 414.4815012557986 754.1215658538089 417.94246584493806Q749.5715908551557 421.40343043407756 744.7381747910126 421.40343043407756L744.7381747910126 421.40343043407756Q744.1116208567719 421.40343043407756 743.1121181521497 421.2990047783708Q742.1126154475274 421.194579122664 741.2324563494274 420.88130215554355Q740.337379300512 420.5680251884232 739.7108253662713 419.92655330336714Q739.0693534812152 419.2999993691264 739.0693534812152 418.3601684677652ZM812.2866560824934 374.82958798884715L812.2866560824934 374.82958798884715Q812.2866560824934 371.78632602253487 813.4502562460834 368.7430640562226Q814.5989384588582 365.6998020899103 816.1653232944601 362.71621192685905Q817.7466260808773 359.71770381299245 819.3726827197402 356.79378545320225Q820.9987393586032 353.85494914259675 821.8341446042575 351.02053848769805L821.8341446042575 351.02053848769805Q819.8351391950131 352.16922070047275 818.432851818379 352.3333181594406Q817.0156464909297 352.4824976675932 815.0166410816854 352.4824976675932L815.0166410816854 352.4824976675932Q814.8077897702718 352.4824976675932 813.7038614099428 352.43774381514737Q812.5999330496138 352.37807201188633 812.2866560824934 352.37807201188633L812.2866560824934 352.37807201188633Q812.9132100167342 350.08070758633687 814.5989384588582 348.2457996360603Q816.2697489501669 346.39597373496855 818.432851818379 345.09811201404125Q820.5810367357759 343.7853323422987 822.9380729645865 342.8902552933833Q825.295109193397 341.9951782444679 827.1896889469346 341.47304996593397L827.1896889469346 341.47304996593397Q830.3373765689536 336.5501261968994 832.3214640273827 331.5675306246037Q834.3204694366271 326.5849350523081 836.3642286983172 321.81119079142604Q838.4079879600073 317.037446530544 841.182726811645 312.6814048924892Q843.9723836140979 308.32536325443436 848.6864560717189 304.6555473538813L848.6864560717189 304.6555473538813L849.2085843502529 308.63864022155474L836.0957055836426 339.3696189009828Q837.2593057472326 339.0563419338624 838.9301162385412 338.74306496674205Q840.6158446806652 338.4297879996217 842.346326975235 338.1165110325013Q844.0768092698047 337.8032340653809 845.7028659086676 337.53471095070626Q847.3289225475306 337.2811057868469 848.4776047603053 336.96782881972655L848.4776047603053 336.96782881972655Q848.5820304160121 336.96782881972655 849.1041586945461 336.9081570164655Q849.62628697308 336.86340316401976 849.9395639402005 336.86340316401976L849.9395639402005 336.86340316401976Q851.4164410709109 336.86340316401976 852.356271972272 337.3855314425537Q853.2961028736332 337.90765972108767 853.9375747586893 339.6828958681032L853.9375747586893 339.6828958681032Q846.7918763181814 341.78632693305434 841.0335473034925 344.0986093094191Q835.2603003379883 346.39597373496855 831.0086843556402 350.1254614387826Q826.7719863241074 353.85494914259675 824.0867551773612 359.5685243048399Q821.4164419814304 365.2820994670831 820.3721854243624 374.2030340546064L820.3721854243624 374.2030340546064Q820.3721854243624 376.0826958573287 820.5810367357759 377.6639986437459Q820.7898880471896 379.2303834793478 823.1916781284458 379.5436604464682L823.1916781284458 379.5436604464682Q825.6083861605174 379.5436604464682 827.7118172254685 378.60382954510703Q829.8003303396043 377.6639986437459 831.7993357488488 376.5600702834169Q833.7983411580931 375.45614192308796 835.8421004197833 374.5163110217268Q837.8858596814733 373.57648012036566 840.3025677135448 373.57648012036566L840.3025677135448 373.57648012036566Q840.3025677135448 376.0826958573287 838.0947109928869 378.18612692227987Q835.886854272229 380.28955798723103 832.7988384534709 381.85594282283296Q829.6959046838975 383.4372456092501 826.4437914061717 384.27265085490444Q823.1916781284458 385.1080561005588 821.10316501431 385.1080561005588L821.10316501431 385.1080561005588Q818.9997339493588 385.1080561005588 817.3289234580501 384.27265085490444Q815.6431950159262 383.4372456092501 814.5392666555972 382.02004028180073Q813.4502562460834 380.6028349543514 812.8684561642884 378.7082552008138Q812.2866560824934 376.8285933980915 812.2866560824934 374.82958798884715ZM894.424893271295 378.18612692227987L894.424893271295 378.18612692227987Q894.8425958941222 373.88975708748603 896.7819295001055 370.26469503937875Q898.7212631060888 366.6545509420867 901.3915763020196 363.3427658610998Q904.0768074487659 360.0458987309281 906.9559719561104 357.04739061706164Q909.8351364634549 354.06380045401033 912.1474188398196 351.02053848769805L912.1474188398196 351.02053848769805Q913.922654986835 351.02053848769805 914.50445506863 351.8111898809066Q915.086255150425 352.5869233232999 915.086255150425 353.75052348688996L915.086255150425 353.75052348688996Q914.2508499047707 354.6903543882511 912.46069580694 357.1518162727684Q910.6854596599244 359.6132781572857 908.8356337588326 362.4476888121844Q907.000725808556 365.2820994670831 905.5835204811067 367.80323315486146Q904.1812331044727 370.32436684263973 903.9723817930591 371.3686233997077L903.9723817930591 371.3686233997077Q903.1220585965895 374.5163110217268 904.0171356455048 375.30696241493536Q904.9122126944202 376.0826958573287 906.9559719561104 375.30696241493536Q908.9997312178004 374.5163110217268 911.8341418726991 372.4725517600367Q914.6685525275979 370.4287924983466 917.6521426906492 367.90765881056825Q920.6357328537005 365.3865251227899 923.4701435085991 362.656540123598Q926.3045541634978 359.9414730752213 928.4079852284489 357.8380420102702L928.4079852284489 357.8380420102702L933.0176320303632 357.8380420102702Q933.0176320303632 359.6132781572857 932.4955037518292 361.2393347961486Q931.9733754732953 362.8653914350116 931.3468215390544 364.44669422142874Q930.7053496539985 366.01307905703067 930.1832213754645 367.5943818434478Q929.6610930969305 369.16076667904974 929.6610930969305 370.84649512117375L929.6610930969305 370.84649512117375Q929.6610930969305 373.24828520243 931.1827240800866 373.78533143177924Q932.7043550632428 374.3074597103132 934.7033604724871 374.3074597103132L934.7033604724871 374.3074597103132Q937.4184275208638 374.3074597103132 940.4169356347303 373.20353134998425Q943.4005257977816 372.0996029896553 945.9216594855599 370.1602693836719Q948.4427931733381 368.2209357776886 950.0688498122012 365.65504823746454Q951.6949064510642 363.07424274642517 951.6949064510642 360.0458987309281L951.6949064510642 360.0458987309281Q951.6949064510642 357.3159137317362 950.9042550578555 355.0633031586325Q950.1136036646469 352.79577463471355 950.1136036646469 350.08070758633687L950.1136036646469 350.08070758633687Q950.1136036646469 346.828594308611 953.6789939094932 346.828594308611L953.6789939094932 346.828594308611Q955.2602966959104 346.828594308611 956.4089789086851 348.18612783279934Q957.5576611214599 349.5436613569876 958.3483125146685 351.4382411105252Q959.1389639078772 353.33282086406274 959.5119126782585 355.3169083224919Q959.8699434978246 357.3159137317362 959.8699434978246 358.56902160021775L959.8699434978246 358.56902160021775Q959.8699434978246 364.0289915986016 957.2443841543395 368.2209357776886Q954.6337427616696 372.41287995677567 950.5313062874742 375.2472906116744Q946.4437877640938 378.0817012665731 941.4611921917982 379.5436604464682Q936.4785966195026 381.0205375771786 931.7645241618816 381.0205375771786L931.7645241618816 381.0205375771786Q927.7814312942082 381.0205375771786 925.4691489178434 378.12645511901883Q923.1568665414787 375.2472906116744 923.052440885772 371.3686233997077L923.052440885772 371.3686233997077Q920.0091789194597 372.3084543010689 917.5029631824965 374.56106487417253Q914.9818294947182 376.8285933980915 912.46069580694 379.185629626902Q909.9395621191616 381.5426658557125 907.2095771199697 383.31790200272803Q904.494510071593 385.1080561005588 901.2423967938671 385.1080561005588L901.2423967938671 385.1080561005588Q900.3920735973975 385.1080561005588 899.198637532177 384.37707651061123Q897.9902835161412 383.6460969206637 896.8863551558123 382.5869224127805Q895.7824267954833 381.5426658557125 895.0514472055357 380.3343118396768Q894.3204676155882 379.125957823641 894.424893271295 378.18612692227987ZM963.0176311198437 378.18612692227987L963.0176311198437 378.18612692227987Q963.0176311198437 376.72416774238474 963.3309080869641 375.6202393820558Q963.6441850540845 374.5163110217268 964.4945082505541 372.72615692389604L964.4945082505541 372.72615692389604Q965.2254878405016 371.6819003668281 967.164821446485 368.7430640562226Q969.1041550524683 365.8042277456171 971.2523399698651 362.5521144678912Q973.4005248872621 359.3000011901653 975.3398584932455 356.42083668282083Q977.2791920992288 353.5416721754763 978.0250896399916 352.37807201188633L978.0250896399916 352.37807201188633Q978.9649205413527 351.02053848769805 979.4870488198868 350.91611283199126Q980.0091770984208 350.8116871762844 981.4860542291311 350.8116871762844L981.4860542291311 350.8116871762844Q982.4258851304922 350.8116871762844 983.5298134908212 350.91611283199126Q984.6337418511501 351.02053848769805 984.9470188182705 352.37807201188633L984.9470188182705 352.37807201188633Q983.4701416875602 355.94346225673263 981.0086798030429 359.15082168201275Q978.5472179185256 362.34326315647763 976.1901816897151 365.4909507784967Q973.8182275100893 368.6386384005158 972.0429913630738 371.9504234815027Q970.2528372652431 375.2472906116744 970.2528372652431 379.0215321679342L970.2528372652431 379.0215321679342Q970.6705398880703 379.0215321679342 971.5656169369855 379.125957823641Q972.460693985901 379.2303834793478 973.5049505429689 379.33480913505457Q974.5641250508521 379.4392347907614 975.4442841489523 379.5436604464682Q976.3393611978676 379.64808610217494 976.7570638206947 379.5436604464682L976.7570638206947 379.5436604464682Q977.3836177549356 379.4392347907614 978.9052487380917 379.08120397119524Q980.4268797212479 378.7082552008138 982.1573620158175 378.29055257798666Q983.8878443103873 377.8728499551595 985.4691470968045 377.45514733233233Q987.0355319324065 377.0374447095051 987.6620858666472 376.8285933980915L987.6620858666472 376.8285933980915Q987.6620858666472 377.0374447095051 987.7217576699082 377.4999011847781Q987.766511522354 377.9772756108663 987.766511522354 378.18612692227987L987.766511522354 378.18612692227987Q987.766511522354 380.28955798723103 985.8271779163707 381.6470915114193Q983.8878443103873 383.00462503560766 981.3219567701632 383.79527642881624Q978.7560692299392 384.5859278220248 976.070838083193 384.8395329858842Q973.4005248872621 385.1080561005588 971.938565707367 385.1080561005588L971.938565707367 385.1080561005588Q970.3572629209499 385.1080561005588 968.7312062820869 384.7351073301774Q967.105149643224 384.37707651061123 965.8520417747425 383.5416712649569Q964.5989339062609 382.6913480684873 963.8082825130523 381.37856839674475Q963.0176311198437 380.0807066758174 963.0176311198437 378.18612692227987ZM993.5397584878582 316.72416956342363L993.5397584878582 316.72416956342363Q994.9122099628618 316.72416956342363 996.0608921756366 316.8285952191304Q997.2095743884113 316.9330208748372 998.0598975848809 317.35072349766443Q998.8953028305352 317.7684261204916 999.4174311090693 318.603831366146Q999.9395593876031 319.4392366118003 999.9395593876031 320.9161137425107L999.9395593876031 320.9161137425107Q999.9395593876031 321.5426676767515 999.9395593876031 322.273647266699Q999.9395593876031 323.01954480746184 999.7903798794506 323.6908525941484Q999.6262824204829 324.3770783316502 999.2085797976557 324.8544527577384Q998.7908771748284 325.3169092330113 997.8361283226521 325.3169092330113L997.8361283226521 325.3169092330113Q996.374169142757 325.3169092330113 995.4790920938416 324.2726526759434Q994.5989329957414 323.2283961188754 994.1663124220989 321.81119079142604Q993.7486097992718 320.3939854639767 993.644184143565 318.91710833326636Q993.5397584878582 317.4551491533712 993.5397584878582 316.72416956342363ZM987.9902807845828 374.82958798884715L987.9902807845828 374.82958798884715Q987.9902807845828 371.78632602253487 989.1389629973577 368.7430640562226Q990.2876452101324 365.6998020899103 991.8689479965495 362.71621192685905Q993.4353328321514 359.71770381299245 995.0613894710144 356.79378545320225Q996.6874461098772 353.85494914259675 997.5228513555315 351.02053848769805L997.5228513555315 351.02053848769805Q995.5387638971025 352.16922070047275 994.1215585696533 352.3333181594406Q992.7043532422039 352.4824976675932 990.7053478329595 352.4824976675932L990.7053478329595 352.4824976675932Q990.496496521546 352.4824976675932 989.3925681612169 352.43774381514737Q988.3035577517032 352.37807201188633 987.9902807845828 352.37807201188633L987.9902807845828 352.37807201188633Q988.6168347188236 350.08070758633687 990.2876452101324 348.2457996360603Q991.9733736522563 346.39597373496855 994.1215585696533 345.09811201404125Q996.26974348705 343.7853323422987 998.6267797158606 342.8902552933833Q1000.9838159446712 341.9951782444679 1002.8783956982087 341.47304996593397L1002.8783956982087 341.47304996593397Q1006.0260833202278 336.5501261968994 1008.0250887294721 331.5675306246037Q1010.0091761879013 326.5849350523081 1012.0529354495914 321.81119079142604Q1014.0966947112814 317.037446530544 1016.8863515137344 312.6814048924892Q1019.6610903653722 308.32536325443436 1024.375162822993 304.6555473538813L1024.375162822993 304.6555473538813L1024.9122090523424 308.63864022155474L1011.799330285732 339.3696189009828Q1012.9480124985067 339.0563419338624 1014.6188229898154 338.74306496674205Q1016.3045514319393 338.4297879996217 1018.0350337265091 338.1165110325013Q1019.765516021079 337.8032340653809 1021.3915726599417 337.53471095070626Q1023.0176292988048 337.2811057868469 1024.1663115115794 336.96782881972655L1024.1663115115794 336.96782881972655Q1024.2707371672864 336.96782881972655 1024.8077833966354 336.9081570164655Q1025.3299116751696 336.86340316401976 1025.6431886422897 336.86340316401976L1025.6431886422897 336.86340316401976Q1027.1051478221852 336.86340316401976 1028.0449787235461 337.3855314425537Q1028.9997275757228 337.90765972108767 1029.6262815099635 339.6828958681032L1029.6262815099635 339.6828958681032Q1022.4955010202708 341.78632693305434 1016.7222540547666 344.0986093094191Q1010.9490070892624 346.39597373496855 1006.7123090577296 350.1254614387826Q1002.4606930753815 353.85494914259675 999.7903798794506 359.5685243048399Q997.1051487327045 365.2820994670831 996.0608921756366 374.2030340546064L996.0608921756366 374.2030340546064Q996.0608921756366 376.0826958573287 996.26974348705 377.6639986437459Q996.4785947984636 379.2303834793478 998.8953028305352 379.5436604464682L998.8953028305352 379.5436604464682Q1001.3120108626068 379.5436604464682 1003.4005239767426 378.60382954510703Q1005.5039550416938 377.6639986437459 1007.4880425001229 376.5600702834169Q1009.4870479093673 375.45614192308796 1011.5308071710575 374.5163110217268Q1013.5745664327475 373.57648012036566 1015.9912744648191 373.57648012036566L1015.9912744648191 373.57648012036566Q1015.9912744648191 376.0826958573287 1013.783417744161 378.18612692227987Q1011.5904789743184 380.28955798723103 1008.4875452047451 381.85594282283296Q1005.399529385987 383.4372456092501 1002.1474161082612 384.27265085490444Q998.8953028305352 385.1080561005588 996.7918717655842 385.1080561005588L996.7918717655842 385.1080561005588Q994.7033586514482 385.1080561005588 993.0176302093242 384.27265085490444Q991.3468197180156 383.4372456092501 990.2428913576865 382.02004028180073Q989.1389629973577 380.6028349543514 988.5571629155626 378.7082552008138Q987.9902807845828 376.8285933980915 987.9902807845828 374.82958798884715ZM1052.1822231426308 385.1080561005588L1052.1822231426308 385.1080561005588Q1049.556663799146 385.525758723386 1047.408478881749 384.2129790516434Q1045.260293964352 382.90019937990087 1043.9922681450553 380.75201446250395Q1042.7391602765738 378.60382954510703 1042.5303089651602 376.03794200488295Q1042.3214576537466 373.47205446465887 1043.574565522228 371.3686233997077L1043.574565522228 371.3686233997077Q1048.1842123241422 365.3865251227899 1049.8699407662662 361.88080668120466Q1051.5407512575748 358.36017028880417 1051.0782947823022 356.9429649613548Q1050.600920356214 355.5257596339054 1048.452735438817 355.7942827485801Q1046.30455052142 356.0478879124394 1043.2612885551075 357.6739445513024Q1040.2180265887955 359.3000011901653 1036.71230814721 361.9255605336504Q1033.1916717548097 364.55111987713553 1030.1484097884972 367.69880749915467Q1027.1051478221852 370.84649512117375 1024.8525372490813 374.24778790705216Q1022.5999266759776 377.6639986437459 1021.9733727417369 380.9161119214718L1021.9733727417369 380.9161119214718Q1020.9141982338537 381.5426658557125 1020.1832186439061 381.91561462609394Q1019.4522390539586 382.2736454456601 1018.5124081525975 382.2736454456601L1018.5124081525975 382.2736454456601Q1016.9311053661803 382.2736454456601 1016.6178283990598 381.22938888859215Q1016.3045514319393 380.1851323315242 1016.3045514319393 379.0215321679342L1016.3045514319393 379.0215321679342Q1016.3045514319393 376.39597282444913 1017.9306080708024 373.6212339728114Q1019.5566647096654 370.84649512117375 1021.7048496270623 368.38503323665645Q1023.8530345444592 365.9086534013239 1025.8520399537033 363.86489413963375Q1027.8361274121326 361.8211348779436 1028.6864506086022 360.5680270094621L1028.6864506086022 360.5680270094621Q1031.2970920012722 356.256739223853 1033.922651344757 351.2741436515574Q1036.5482106882423 346.29154807926176 1039.1737700317276 341.10010119555255Q1041.7993293752124 335.90865431184335 1044.5740682268502 330.8216330838409Q1047.3488070784879 325.73461185583847 1050.3920690448003 321.12496505392426L1050.3920690448003 321.12496505392426Q1050.914197323334 320.2895598082699 1051.2871460937158 319.97628284114955Q1051.6600948640971 319.6630058740292 1052.3910744540444 319.6630058740292L1052.3910744540444 319.6630058740292Q1053.2264796996988 319.6630058740292 1053.644182322526 319.97628284114955Q1054.0618849453535 320.2895598082699 1054.4795875681802 321.12496505392426L1054.4795875681802 321.12496505392426Q1054.4795875681802 321.5426676767515 1054.3304080600278 322.4824985781126Q1054.16631060106 323.437247430289 1054.0171310929077 324.5262578398027Q1053.85303363394 325.6301862001317 1053.5994284700805 326.5849350523081Q1053.3309053554058 327.52476595366926 1053.2264796996988 327.83804292078963L1053.2264796996988 327.83804292078963Q1052.599925765458 329.0911507892712 1051.1230486347476 332.23883841129026Q1049.6610894548526 335.38652603330934 1047.9306071602828 338.95191627815564Q1046.2001248657134 342.5173065230019 1044.618822079296 345.9335172596956Q1043.052437243694 349.33481004557405 1042.3214576537466 351.02053848769805L1042.3214576537466 351.02053848769805Q1043.8878424893487 349.9762819306301 1045.155868308645 349.3944818488351Q1046.408976177127 348.8126817670401 1047.6173301931626 348.55907660318076Q1048.8256842091982 348.29055348850613 1050.138463880941 348.2457996360603Q1051.4363256018682 348.18612783279934 1053.0176283882856 348.18612783279934L1053.0176283882856 348.18612783279934Q1056.7918699445454 349.12595873416046 1058.000223960581 351.02053848769805Q1059.2085779766167 352.90020029042034 1058.7312035505283 355.37658012575287Q1058.2538291244405 357.8380420102702 1056.6874442888384 360.7768783208757Q1055.1210594532363 363.7157146314812 1053.390577158667 366.69930479453245Q1051.6600948640971 369.68289495758376 1050.2876433890933 372.4725517600367Q1048.9301098649053 375.2472906116744 1049.0345355206118 377.5595729880391L1049.0345355206118 377.5595729880391Q1049.0345355206118 378.49940388940024 1049.452238143439 378.9171065122274Q1049.8699407662662 379.33480913505457 1050.496494700507 379.5436604464682Q1051.1230486347476 379.75251175788173 1051.8689461755107 379.75251175788173Q1052.599925765458 379.75251175788173 1053.2264796996988 379.75251175788173L1053.2264796996988 379.75251175788173Q1055.4343364203569 379.75251175788173 1057.4780956820468 379.08120397119524Q1059.5218549437373 378.39497823369345 1061.5059424021665 377.5595729880391Q1063.5049478114106 376.72416774238474 1065.5487070731006 376.03794200488295Q1067.592466334791 375.35171626738116 1069.8003230554486 375.35171626738116L1069.8003230554486 375.35171626738116Q1069.8003230554486 377.3507216766255 1067.8013176462046 379.125957823641Q1065.8172301877753 380.9161119214718 1063.0275733853223 382.2288915932143Q1060.2528345336846 383.5416712649569 1057.2095725673726 384.3174047073502Q1054.16631060106 385.1080561005588 1052.1822231426308 385.1080561005588ZM1119.7307044341119 360.5680270094621L1119.7307044341119 360.5680270094621Q1119.6262787784049 360.1503243866349 1119.7307044341119 359.35967299342633Q1119.8351300898184 358.56902160021775 1120.043981401232 357.6739445513024Q1120.2528327126456 356.79378545320225 1120.5661096797662 356.0478879124394Q1120.8793866468864 355.3169083224919 1121.192663614007 355.10805701107824L1121.192663614007 355.10805701107824Q1121.192663614007 355.00363135537145 1121.8788893515089 354.8544518472189Q1122.5651150890108 354.6903543882511 1122.982817711838 354.6903543882511L1122.982817711838 354.6903543882511Q1124.6536282031466 354.6903543882511 1125.6083770553228 355.63018528961226Q1126.548207956684 356.58493414178866 1127.4432850055996 357.6739445513024Q1128.3234441036993 358.77787291163133 1129.5317981197354 359.71770381299245Q1130.740152135771 360.67245266516886 1132.9480088564292 360.67245266516886L1132.9480088564292 360.67245266516886Q1138.8107635268248 360.67245266516886 1143.7933590991202 358.67344725592454Q1148.775954671416 356.68935979749546 1153.1319963094707 354.31740561786967Q1157.4880379475258 351.96036938905917 1161.4263769627532 349.9762819306301Q1165.349798027166 347.97727652138576 1169.138957534241 347.97727652138576L1169.138957534241 347.97727652138576Q1169.138957534241 349.43923570128084 1167.8261778624983 351.12496414340484Q1166.5133981907557 352.79577463471355 1164.6784902404793 354.3770774211307Q1162.843582290203 355.94346225673263 1160.9042486842195 357.2114880760294Q1158.9499971274208 358.46459594451096 1157.801314914646 359.0911498787517L1157.801314914646 359.0911498787517Q1154.3403503255067 361.1945809437029 1151.5059396706079 362.6117862711522Q1148.671529015709 364.0289915986016 1145.7476106559188 365.02849430322374Q1142.8087743453134 366.01307905703067 1139.5566610675874 366.5352073355646Q1136.3045477898618 367.07225356491386 1131.9932600042525 367.28110487632745L1131.9932600042525 367.28110487632745Q1132.425880577895 367.80323315486146 1133.57456279067 368.95191536763616Q1134.7232450034444 370.11551553122615 1136.036024675187 371.41337725215345Q1137.3488043469297 372.72615692389604 1138.4974865597042 373.88975708748603Q1139.6610867232944 375.03843930026073 1140.1832150018286 375.45614192308796L1140.1832150018286 375.45614192308796Q1141.1230459031894 376.2915471687423 1142.3910717224862 376.6644959391237Q1143.6441795909677 377.0374447095051 1144.9569592627104 377.0821985619509Q1146.269738934453 377.14187036521196 1147.5825186061957 377.0374447095051Q1148.880380327123 376.9330190537983 1150.0439804907128 376.9330190537983L1150.0439804907128 376.9330190537983Q1152.6695398341976 376.9330190537983 1156.175258275783 376.5600702834169Q1159.6958946681839 376.18712151303555 1163.0524336016165 375.20253675922856Q1166.408972535049 374.2030340546064 1169.0792857309798 372.3084543010689Q1171.749598926911 370.4287924983466 1172.8087734347937 367.28110487632745L1172.8087734347937 367.28110487632745Q1173.0176247462077 366.6545509420867 1173.5845068771873 364.6555455328423Q1174.1663069589822 362.656540123598 1175.0017122046365 360.0458987309281Q1175.8520354011061 357.420339387443 1176.7918663024675 354.3770774211307Q1177.7316972038284 351.3338154548184 1178.5671024494827 348.7082561113333Q1179.4174256459523 346.0826967678482 1180.088733432639 344.0986093094191Q1180.7749591701408 342.0996039001747 1180.9838104815544 341.47304996593397L1180.9838104815544 341.47304996593397Q1182.878390235092 337.6988084096741 1185.444277775316 333.55161808303285Q1188.0101653155402 329.40442775639156 1191.1578529375593 325.7942836590995Q1194.3055405595783 322.1692216109922 1197.870930804425 319.39448275935456Q1201.4363210492706 316.61974390771684 1205.3149882612374 315.56056939983364L1205.3149882612374 315.56056939983364Q1208.9848041617906 315.56056939983364 1210.6108608006534 318.08170308761197Q1212.2369174395167 320.6028367753903 1212.2369174395167 323.7505243974094L1212.2369174395167 323.7505243974094Q1212.2369174395167 331.6122844770495 1208.9848041617906 339.0563419338624Q1205.7326908840646 346.51531734149063 1200.7500953117692 353.22839520835595Q1195.7674997394734 359.9414730752213 1189.74064761011 365.5953764342035Q1183.7137954807463 371.2641977440009 1178.1493998266556 375.45614192308796L1178.1493998266556 375.45614192308796Q1178.1493998266556 375.7694188902083 1178.0002203185031 376.3512189720033Q1177.8361228595354 376.9330190537983 1177.6272715481218 377.5595729880391Q1177.4184202367082 378.18612692227987 1177.2095689252947 378.76792700407486Q1177.000717613881 379.33480913505457 1176.896291958174 379.5436604464682L1176.896291958174 379.5436604464682Q1176.7918663024675 379.64808610217494 1176.6874406467605 379.64808610217494L1176.6874406467605 379.64808610217494L1176.3741636796403 379.64808610217494Q1176.1653123682268 379.64808610217494 1175.896789253552 379.6033322497292Q1175.6282661388773 379.5436604464682 1175.5238404831707 379.5436604464682L1175.5238404831707 379.5436604464682Q1175.0017122046365 379.4392347907614 1173.4800812214808 378.9171065122274Q1171.958450238324 378.39497823369345 1171.4363219597903 378.18612692227987L1171.4363219597903 378.18612692227987Q1170.4964910584295 378.49940388940024 1168.1842086820643 379.33480913505457Q1165.886844256515 380.1851323315242 1163.26128491303 381.0205375771786Q1160.6357255695448 381.85594282283296 1158.32344319318 382.5869224127805Q1156.0260787676307 383.31790200272803 1155.071329915454 383.6460969206637L1155.071329915454 383.6460969206637Q1154.8624786040405 383.7505225763705 1154.0270733583861 383.899702084523Q1153.1916681127318 384.06379954349086 1152.0877397524027 384.27265085490444Q1150.9838113920737 384.481502166318 1149.9395548350058 384.6903534777316Q1148.880380327123 384.8992047891452 1148.3582520485888 385.00363044485204L1148.3582520485888 385.00363044485204L1147.627272458641 385.00363044485204Q1142.8087743453134 385.00363044485204 1138.4974865597042 382.64659421604154Q1134.2011167249107 380.28955798723103 1130.6953982833252 376.6644959391237Q1127.1747618909249 373.0394338910164 1124.4000230392871 368.7430640562226Q1121.6103662368341 364.44669422142874 1119.7307044341119 360.5680270094621ZM1207.313993670482 321.96037029957864L1207.313993670482 321.96037029957864Q1203.8530290813424 321.96037029957864 1200.4368183446486 324.31740652838914Q1197.0355255587701 326.6893607080149 1193.932591789197 330.46360226427475Q1190.844575970439 334.23784382053464 1188.2190166269538 339.0115880814167Q1185.5934572834685 343.7853323422987 1183.6541236774851 348.55907660318076Q1181.7147900715022 353.33282086406274 1180.6108617111731 357.7783702070092Q1179.5218513016594 362.23883750077084 1179.5218513016594 365.2820994670831L1179.5218513016594 365.2820994670831Q1179.5218513016594 365.4909507784967 1179.5666051541052 365.6998020899103Q1179.6262769573664 365.9086534013239 1179.6262769573664 366.01307905703067L1179.6262769573664 366.01307905703067Q1185.5934572834685 362.4476888121844 1190.6357246590255 357.7783702070092Q1195.6630740837668 353.1090516018339 1199.3925617875807 347.45514824285175Q1203.122049491395 341.78632693305434 1205.2105626055309 335.38652603330934Q1207.313993670482 328.9867251335644 1207.313993670482 321.96037029957864ZM1186.026077857111 440.7072587890193L1186.026077857111 440.7072587890193Q1186.026077857111 434.72516051210147 1188.0698371188014 429.9961701036652Q1190.1135963804913 425.2820976460442 1193.470135313924 421.23933297510973Q1196.8266742473566 417.2114862549905 1201.1230440821505 413.79527551829676Q1205.4194139169444 410.39398273241835 1209.9395530139673 407.18662330713823Q1214.4447741601743 403.99418183267335 1218.7411439949683 400.7420685549475Q1223.052431780577 397.4899552772216 1226.4089707140101 393.8201393766685Q1229.7655096474427 390.15032347611543 1231.8092689091327 385.83903569050636Q1233.8530281708227 381.5426658557125 1233.8530281708227 376.2915471687423L1233.8530281708227 376.2915471687423Q1233.8530281708227 376.0826958573287 1233.8530281708227 375.30696241493536Q1233.8530281708227 374.5163110217268 1233.748602515116 374.3074597103132L1233.748602515116 374.3074597103132Q1233.0176229251683 374.93401364455394 1230.9141918602172 376.14236766058974Q1228.810760795266 377.3507216766255 1226.4537245664555 378.6635013483681Q1224.0966883376454 379.9613630692954 1221.8888316169873 381.0205375771786Q1219.6958928471445 382.06479413424654 1218.7411439949683 382.3780711013669L1218.7411439949683 382.3780711013669Q1218.6367183392613 382.3780711013669 1217.9654105525747 382.4824967570737Q1217.2791848150732 382.5869224127805 1216.3841077661577 382.6913480684873Q1215.4890307172423 382.7957737241941 1214.653625471588 382.8554455274551Q1213.8182202259336 382.90019937990087 1213.2960919473999 382.90019937990087L1213.2960919473999 382.90019937990087Q1208.5671015389635 382.06479413424654 1207.0007167033614 379.6033322497292Q1205.4194139169444 377.14187036521196 1206.165311457707 373.78533143177924Q1206.8962910476548 370.4287924983466 1209.462178587879 366.59487913882566Q1212.028066128103 362.7609657793048 1215.65312817621 359.25524733771954Q1219.263272273502 355.73461094531905 1223.51488825585 352.9598720936813Q1227.7665042381982 350.18513324204366 1231.8092689091327 348.9767792260079Q1235.837115629252 347.7684252099721 1239.2533263659457 348.45465094747397Q1242.6546191518241 349.12595873416046 1244.5491989053617 352.5869233232999L1244.5491989053617 352.5869233232999Q1245.1757528396024 357.00263676461583 1244.5491989053617 360.82163217332146Q1243.922644971121 364.6555455328423 1242.8634704632377 368.3253614333954Q1241.8192139061698 371.9951773339485 1240.774957349102 375.7246650377626Q1239.730700792034 379.4392347907614 1239.5069315298051 383.8549482320773L1239.5069315298051 383.8549482320773L1240.4616803819813 383.8549482320773Q1241.0882343162225 383.21347634702124 1242.6098652993783 381.6470915114193Q1244.1314962825345 380.0807066758174 1245.8619785771043 378.3502243812477Q1247.5924608716741 376.6048241358627 1249.1588457072758 375.0981111035218Q1250.7401484936931 373.57648012036566 1251.366702427934 372.9350082353096L1251.366702427934 372.9350082353096Q1251.679979395054 372.62173126818925 1252.6794820996765 372.0996029896553Q1253.6789848042986 371.5774747111213 1254.0966874271257 371.5774747111213L1254.0966874271257 371.5774747111213L1254.0966874271257 371.89075167824166L1254.0966874271257 372.0996029896553Q1254.0966874271257 372.2040286453621 1254.2011130828323 372.2040286453621L1254.2011130828323 372.2040286453621Q1254.2011130828323 375.9782702016219 1252.0529281654358 379.125957823641Q1249.9047432480388 382.2736454456601 1246.8614812817264 385.00363044485204Q1243.818219315414 387.73361544404395 1240.5661060376883 390.09065167285445Q1237.3139927599623 392.44768790166495 1235.1061360393046 394.65554462232285L1235.1061360393046 394.65554462232285Q1233.330899892289 398.32536052287594 1231.2274688273378 403.8300843737055Q1229.1240377623867 409.33480822453515 1226.6178220254237 415.58542961612756Q1224.0966883376454 421.8211330569047 1220.9937545680718 428.2656878090955Q1217.905738749314 434.72516051210147 1214.071825389793 440.17021255967006Q1210.2528299810874 445.6301825580539 1205.628265228358 449.56852157328154Q1201.018618426444 453.49194263769397 1195.3497971166462 454.65554280128396L1195.3497971166462 454.65554280128396Q1192.6347300682696 454.65554280128396 1190.784904167178 453.2830913262804Q1188.9499962169016 451.92555780209204 1187.9057396598332 449.881798540402Q1186.8614831027653 447.8380392787118 1186.4437804799381 445.36165944337927Q1186.026077857111 442.9001975588619 1186.026077857111 440.7072587890193ZM1191.5755555603864 446.3611621480014L1191.5755555603864 446.3611621480014Q1192.4109608060407 448.36016755724575 1193.574560969631 448.77787018007297Q1194.7232431824054 449.19557280290013 1196.2001203131158 449.19557280290013L1196.2001203131158 449.19557280290013Q1198.9151873614924 449.19557280290013 1202.1673006392184 446.3611621480014Q1205.4194139169444 443.52675149310267 1208.7311989979312 439.0812021501563Q1212.028066128103 434.6207348563946 1215.071328094415 429.16076485801085Q1218.1145900607276 423.71571281044226 1220.471626289538 418.5690197791788Q1222.8435804691635 413.42232674791535 1224.2458678457979 409.1856287163826Q1225.663073173247 404.9340127340345 1225.663073173247 402.83058166908336L1225.663073173247 402.83058166908336Q1225.663073173247 402.6217303576698 1225.6183193208012 402.15927388239686Q1225.5586475175405 401.68189945630866 1225.5586475175405 401.473048144895L1225.5586475175405 401.473048144895Q1225.24537055042 401.68189945630866 1224.1414421900909 402.15927388239686Q1223.052431780577 402.6217303576698 1222.8435804691635 402.83058166908336L1222.8435804691635 402.83058166908336Q1218.4278670278477 406.0826949468093 1212.9231431770186 410.02103396203694Q1207.4184193261885 413.9593729772646 1202.6446750653067 418.6734454348856Q1197.870930804425 423.38751789250665 1194.6188175266989 428.9071596941515Q1191.3667042489728 434.4118835449811 1191.3667042489728 440.8116844447261L1191.3667042489728 440.8116844447261Q1191.3667042489728 441.12496141184647 1191.3667042489728 441.9603666575008Q1191.3667042489728 442.7957719031552 1191.426376052234 443.6311771488095Q1191.4711299046799 444.48150034527913 1191.5308017079406 445.2572337876725Q1191.5755555603864 446.04788518088105 1191.5755555603864 446.3611621480014ZM1237.8361210384965 353.85494914259675L1237.8361210384965 353.85494914259675Q1236.1503925963725 353.85494914259675 1233.4353255479955 354.9588775029257Q1230.7053405488036 356.0478879124394 1227.6024067792305 357.942467665977Q1224.5143909604726 359.8221294686993 1221.3667033384531 362.23883750077084Q1218.2190157164341 364.6555455328423 1215.65312817621 367.28110487632745Q1213.0872406359863 369.89174626899734 1211.505937849569 372.51730561248246Q1209.9395530139673 375.1428649559676 1209.9395530139673 377.3507216766255L1209.9395530139673 377.3507216766255Q1212.1324917838097 377.3507216766255 1215.2801794058287 376.4556446277101Q1218.4278670278477 375.56056757879475 1221.8440777645415 374.0389365956386Q1225.24537055042 372.51730561248246 1228.6019094838525 370.47354635079233Q1231.9584484172856 368.4297870891022 1234.6436795640316 366.11750471273746Q1237.3139927599623 363.820140287188 1238.984803251271 361.40343225511646Q1240.6705316933949 358.9867242230449 1240.6705316933949 356.68935979749546L1240.6705316933949 356.68935979749546Q1240.6705316933949 353.85494914259675 1237.8361210384965 353.85494914259675ZM1253.6789848042986 376.18712151303555L1253.6789848042986 376.18712151303555Q1253.6789848042986 375.7694188902083 1253.7237386567444 374.45663921846574Q1253.7834104600051 373.1438595467232 1253.7834104600051 372.72615692389604L1253.7834104600051 372.72615692389604Q1257.1399493934382 365.0732481556695 1262.376150129593 358.56902160021775Q1267.6272688165632 352.06479504476596 1274.2359210277218 347.0374456200246L1274.2359210277218 347.0374456200246Q1274.4447723391354 347.0374456200246 1274.9221467652237 346.87334816105675Q1275.3846032404967 346.7241686529042 1275.5934545519103 346.7241686529042L1275.5934545519103 346.7241686529042Q1278.4278652068087 346.7241686529042 1280.2627731570856 347.9176047181247Q1282.097681107362 349.12595873416046 1283.201609467691 351.0652923401438Q1284.30553782802 353.00462594612713 1284.7232404508472 355.37658012575287Q1285.1409430736744 357.73361635456337 1285.1409430736744 359.9414730752213L1285.1409430736744 359.9414730752213Q1285.1409430736744 364.0289915986016 1283.2612812709517 368.48945889236325Q1281.3667015174146 372.9350082353096 1278.1593420921345 376.6644959391237Q1274.9669006176696 380.39398364293777 1270.8793820942892 382.7510198717483Q1266.7918635709088 385.1080561005588 1262.376150129593 385.1080561005588L1262.376150129593 385.1080561005588Q1257.9753546390925 385.1080561005588 1255.8271697216956 382.7510198717483Q1253.6789848042986 380.39398364293777 1253.6789848042986 376.18712151303555ZM1261.8540218510589 374.93401364455394L1261.8540218510589 374.93401364455394Q1261.8540218510589 376.0826958573287 1262.7938527524202 376.5003984801559Q1263.7486016045968 376.9330190537983 1264.6884325059577 376.9330190537983L1264.6884325059577 376.9330190537983Q1267.313991849443 376.9330190537983 1269.7754537339601 375.51581372634894Q1272.2369156184777 374.0986083988996 1274.1762492244607 371.9504234815027Q1276.115582830444 369.78732061329055 1277.2791829940343 367.17667922062066Q1278.4278652068087 364.55111987713553 1278.4278652068087 362.134411845064L1278.4278652068087 362.134411845064Q1278.4278652068087 360.9857296322893 1278.2786856986563 359.5685243048399Q1278.1145882396886 358.1513189773906 1277.5924599611544 357.04739061706164Q1277.0703316826207 355.94346225673263 1275.9664033222916 355.3169083224919Q1274.8624749619626 354.6903543882511 1272.8634695527185 355.10805701107824L1272.8634695527185 355.10805701107824Q1271.4015103728234 355.4213339781987 1269.5069306192854 357.8380420102702Q1267.6272688165632 360.2547500423417 1265.8967865219934 363.4471915168066Q1264.1663042274236 366.6545509420867 1263.0027040638338 369.84699241655153Q1261.8540218510589 373.0394338910164 1261.8540218510589 374.93401364455394ZM1312.0976801968422 376.9330190537983L1312.0976801968422 376.9330190537983Q1312.0976801968422 373.78533143177924 1313.410459868585 371.1001002850331Q1314.7232395403275 368.4297870891022 1316.2896243759296 366.01307905703067Q1317.8709271623466 363.6112889757744 1319.1837068340892 361.1945809437029Q1320.4964865058319 358.77787291163133 1320.4964865058319 356.0478879124394L1320.4964865058319 356.0478879124394Q1320.4964865058319 355.4213339781987 1320.4368147025707 354.52625692928325Q1320.3920608501248 353.64609783118317 1320.2279633911571 352.79577463471355Q1320.0638659321894 351.96036938905917 1319.6014094569164 351.3785693072642Q1319.124035030828 350.8116871762844 1318.3930554408807 350.8116871762844L1318.3930554408807 350.8116871762844Q1318.2886297851737 350.8116871762844 1318.0201066704994 350.8564410287302Q1317.76650150664 350.91611283199126 1317.76650150664 351.02053848769805L1317.76650150664 351.02053848769805Q1316.2896243759296 353.00462594612713 1314.2458651142392 355.48100578145966Q1312.2021058525493 357.942467665977 1309.8898234761846 360.3591756980485Q1307.5924590506352 362.7609657793048 1305.384602329977 364.9688224999627Q1303.1767456093194 367.17667922062066 1301.4015094623037 368.6386384005158L1301.4015094623037 368.6386384005158Q1300.1484015938222 369.78732061329055 1297.98529872561 371.78632602253487Q1295.837113808213 373.78533143177924 1293.688928890816 375.7246650377626Q1291.5407439734195 377.6639986437459 1289.9146873345562 379.125957823641Q1288.2886306956934 380.6028349543514 1288.0797793842798 380.6028349543514L1288.0797793842798 380.6028349543514L1283.2612812709517 376.5003984801559Q1284.201112172313 376.5003984801559 1285.0961892212285 376.0826958573287Q1285.9763483193287 375.66499323450154 1286.8266715157984 375.1428649559676L1286.8266715157984 375.1428649559676Q1293.107128809021 370.95092077688054 1298.1941500370235 365.4909507784967Q1303.281171265026 360.0458987309281 1308.219012984876 353.75052348688996L1308.219012984876 353.75052348688996Q1308.4278642962895 353.4372465197696 1309.322941345205 351.9156155366134Q1310.21801839412 350.39398455345724 1311.262274951188 348.45465094747397Q1312.3065315082563 346.51531734149063 1313.3507880653242 344.561065784692Q1314.4099625732074 342.6217321787087 1314.9320908517411 341.47304996593397L1314.9320908517411 341.47304996593397Q1315.5586447859819 340.1155164417456 1315.7227422449496 339.265193245276Q1315.8719217531025 338.4297879996217 1316.0360192120702 337.9524135735335Q1316.1851987202226 337.4899570982605 1316.6029013430498 337.2811057868469Q1317.0355219166922 337.07225447543334 1318.3930554408807 337.07225447543334L1318.3930554408807 337.07225447543334Q1318.6019067522943 337.07225447543334 1319.3925581455028 337.17668013114013Q1320.1832095387113 337.2811057868469 1320.3920608501248 337.3855314425537L1320.3920608501248 337.3855314425537Q1321.7495943743133 340.2199420974524 1322.7938509313813 342.4128808672951Q1323.8530254392645 344.62073758795304 1324.5840050292122 346.5600711939364Q1325.3149846191595 348.4994047999197 1325.6879333895408 350.49841020916404Q1326.0459642091073 352.4824976675932 1326.0459642091073 354.89920569966466L1326.0459642091073 354.89920569966466Q1324.6884306849188 358.36017028880417 1323.0027022427948 361.98523233691145Q1321.3318917514862 365.5953764342035 1320.1832095387113 368.84748971192937Q1319.0196093751215 372.0996029896553 1318.766004211262 374.72516233314036Q1318.4974810965873 377.3507216766255 1319.914686424037 378.87235265978165Q1321.3318917514862 380.39398364293777 1324.7331845373647 380.49840929864456Q1328.1493952740584 380.6028349543514 1334.4447705180964 378.7082552008138L1334.4447705180964 378.7082552008138Q1336.115581009405 379.5436604464682 1334.758047485217 380.75201446250395Q1333.3855960102132 381.96036847853975 1330.6108571585755 383.00462503560766Q1327.8361183069378 384.06379954349086 1324.524333225951 384.7351073301774Q1321.2274660957792 385.4213330676792 1319.0196093751215 385.1080561005588L1319.0196093751215 385.1080561005588Q1317.0355219166922 385.1080561005588 1315.7227422449496 384.421830363057Q1314.4099625732074 383.7505225763705 1313.6193111799985 382.5869224127805Q1312.82865978679 381.43824020000574 1312.470628967224 379.9613630692954Q1312.0976801968422 378.49940388940024 1312.0976801968422 376.9330190537983Z " fill="#ff8c00" transform="matrix(0.6552508264756315,0,0,0.6552508264756314,0,51.23039825280779)"/></g></svg>